<?xml version="1.0" encoding="UTF-8"?>
<svg xmlns="http://www.w3.org/2000/svg" viewBox="0 0 64 64" width="64" height="64">
  <title>护城河 SCRM</title>
  <circle cx="32" cy="32" r="30" fill="rgb(14, 74, 111)"/>
  <!-- 城墙 -->
  <path d="M18 38 L18 22 L22 22 L22 20 L26 20 L26 22 L30 22 L30 20 L34 20 L34 22 L38 22 L38 20 L42 20 L42 22 L46 22 L46 38 Z"
        fill="rgb(196, 155, 87)"/>
  <!-- 城门 -->
  <path d="M28 38 L28 30 A 4 4 0 0 1 36 30 L36 38 Z" fill="rgb(14, 74, 111)"/>
  <!-- 水波 -->
  <path d="M12 46 Q 18 42 24 46 T 36 46 T 48 46 T 60 46" fill="none"
        stroke="rgba(255,255,255,0.55)" stroke-width="1.6" stroke-linecap="round"/>
  <path d="M12 52 Q 18 48 24 52 T 36 52 T 48 52 T 60 52" fill="none"
        stroke="rgba(255,255,255,0.35)" stroke-width="1.6" stroke-linecap="round"/>
</svg>
